<?xml version="1.0" encoding="UTF-8"?>
<svg id="Ebene_1" data-name="Ebene 1" xmlns="http://www.w3.org/2000/svg" viewBox="0 0 95.06 28.12">
  <defs>
    <style>
      .cls-1 {
        fill: #fff;
      }

      .cls-2 {
        fill: #1d1d1b;
      }
    </style>
  </defs>
  <path class="cls-2" d="m16.77,2.57s5.78-.29,9.7,9.98c3.92,10.27,1.64,15.62.4,15.57-1.24-.05-5.99-4.87-7.28-6.03-1.29-1.16-2.28-1.45-2.82-2.17-.54-.72-1.15-3.54-1.15-4.19s.41-3.48.42-6.56c0-2.99.74-6.61.74-6.61h0Z"/>
  <path class="cls-2" d="m11.89,2.57s-5.78-.29-9.7,9.98c-3.92,10.27-1.64,15.62-.4,15.57,1.24-.05,5.99-4.87,7.28-6.03,1.29-1.16,2.28-1.45,2.82-2.17.54-.72,1.15-3.41,1.27-4.01.12-.64-.53-3.66-.53-6.74,0-2.99-.74-6.61-.74-6.61h0Z"/>
  <path class="cls-2" d="m13.44,0v6.67s-.02,2.81-.07,3.02c-.05.22-.9,1.28-.9,1.28l.63,5.12s.67-4.39,1.5-4.39c.71,0,1.07,4.63,1.07,4.63.92.31.98-5.26.98-5.26,0,0-1.18-.44-1.35-1.43-.08-.48,0-9.65,0-9.65h-1.87Z"/>
  <path class="cls-2" d="m31.87,11.71l2.68,7.87h.03l2.53-7.87h3.54v11.45h-2.36v-8.12h-.03l-2.81,8.12h-1.94l-2.81-8.03h-.03v8.03h-2.36v-11.45h3.54Zm16.23,4.63c.45,0,.82-.11,1.11-.32.29-.21.43-.56.43-1.04,0-.27-.05-.49-.14-.66-.1-.17-.22-.3-.38-.4-.16-.1-.34-.16-.55-.2-.21-.04-.42-.06-.65-.06h-2.36v2.68h2.55Zm.32-4.63c.55,0,1.04.05,1.49.14.45.1.83.25,1.15.47.32.22.57.51.75.87.18.36.26.81.26,1.35,0,.58-.13,1.06-.39,1.44-.26.38-.65.7-1.16.95.71.2,1.23.56,1.58,1.07.35.51.52,1.12.52,1.84,0,.58-.11,1.08-.34,1.5-.22.42-.53.77-.91,1.03-.38.27-.81.47-1.3.59-.49.13-.99.19-1.5.19h-5.55v-11.45h5.39Zm-.18,9.49c.25,0,.48-.02.71-.07.22-.05.42-.13.59-.24.17-.11.31-.26.41-.46.1-.19.15-.44.15-.74,0-.59-.17-1.01-.5-1.26-.33-.25-.77-.38-1.32-.38h-2.74v3.14h2.69Zm13.36-9.49l4.78,7.68h.03v-7.68h2.36v11.45h-2.52l-4.76-7.67h-.03v7.67h-2.36v-11.45h2.5Zm11.42,8.28c.06.32.17.6.33.85.15.25.36.45.62.6.26.15.58.22.96.22s.71-.07.97-.22c.26-.15.47-.35.63-.6.16-.25.26-.53.33-.85.06-.32.1-.64.1-.97s-.03-.66-.1-.98c-.06-.32-.17-.6-.33-.85-.16-.25-.36-.45-.63-.6-.26-.15-.58-.23-.97-.23s-.71.08-.96.23c-.26.16-.46.36-.62.6-.15.25-.26.53-.33.85-.06.32-.1.65-.1.98s.03.65.1.97h0Zm-2.07-2.77c.2-.54.49-1,.87-1.38.37-.38.82-.67,1.35-.88.52-.21,1.11-.31,1.76-.31s1.24.1,1.77.31c.53.21.98.5,1.35.88.38.38.66.84.87,1.38.2.54.3,1.14.3,1.8s-.1,1.26-.3,1.8c-.2.53-.49.99-.87,1.37-.37.38-.82.67-1.35.87-.53.2-1.12.3-1.77.3s-1.24-.1-1.76-.3c-.52-.2-.97-.49-1.35-.87-.38-.38-.66-.84-.87-1.37-.2-.53-.31-1.13-.31-1.8s.1-1.26.31-1.8h0Zm12.08-2.35v1.54h.03c.11-.26.25-.49.43-.71.18-.22.39-.41.63-.56.24-.15.49-.28.75-.36.27-.09.55-.13.83-.13.15,0,.32.03.5.08v2.12c-.11-.02-.24-.04-.38-.06-.15-.02-.3-.02-.43-.02-.42,0-.77.07-1.06.21-.29.14-.52.33-.7.57-.18.24-.3.52-.38.84-.07.32-.11.67-.11,1.04v3.74h-2.28v-8.29h2.16Zm9.74,3.14c-.06-.32-.17-.59-.33-.83-.15-.24-.35-.44-.6-.59-.25-.15-.56-.22-.93-.22s-.69.07-.95.22c-.26.15-.46.35-.62.59-.15.25-.27.53-.34.84-.07.32-.1.64-.1.99,0,.32.04.64.11.96.07.32.19.61.36.86.17.25.37.45.62.61.25.16.55.23.91.23.38,0,.69-.07.94-.22.25-.15.45-.35.6-.6.15-.25.26-.54.32-.86.06-.32.1-.65.1-.99s-.03-.67-.1-.99h0Zm.1,4.1c-.27.45-.62.77-1.05.97-.43.2-.92.3-1.47.3-.62,0-1.17-.12-1.64-.36-.47-.24-.86-.57-1.16-.98-.31-.41-.54-.88-.69-1.42-.15-.53-.23-1.09-.23-1.67s.08-1.09.23-1.61c.15-.52.38-.98.69-1.37.3-.4.69-.71,1.15-.95.46-.24.99-.36,1.6-.36.49,0,.96.1,1.4.31.44.21.79.52,1.05.92h.03v-4.17h2.28v11.45h-2.16v-1.06h-.03Z"/>
  <path class="cls-1" d="m21.95,16.35c.45,0,.82-.11,1.11-.32.29-.21.43-.56.43-1.04,0-.27-.05-.49-.14-.66-.1-.17-.22-.3-.38-.4-.16-.1-.34-.16-.55-.2-.21-.04-.43-.06-.65-.06h-2.36v2.68h2.55Zm.32-4.63c.55,0,1.04.05,1.49.14.45.1.83.25,1.15.47.32.22.57.51.75.87.18.36.26.81.26,1.35,0,.58-.13,1.06-.39,1.44-.26.38-.65.7-1.16.95.71.2,1.23.56,1.58,1.07.35.51.52,1.12.52,1.84,0,.58-.11,1.08-.34,1.5-.22.42-.53.77-.91,1.03-.38.27-.81.47-1.3.59-.49.13-.99.19-1.5.19h-5.55v-11.45h5.39Zm-.18,9.49c.25,0,.48-.02.71-.07.22-.05.42-.13.59-.24.17-.11.31-.26.41-.46.1-.19.15-.44.15-.74,0-.59-.17-1.01-.5-1.26-.33-.25-.77-.38-1.32-.38h-2.74v3.14h2.69Z"/>
</svg>